HIERARCHY
ROOT ui
{
	 OFFSET 0 0 0
	 CHANNELS 3 XPosition YPosition Z Position
	 EndSite
	 {
	 OFFSET 0 -1 0
	 }
}
ROOT li
{
	 OFFSET 0 0 0
	 CHANNELS 3 XPosition YPosition Z Position
	 EndSite
	 {
	 OFFSET 0 -1 0
	 }
}
ROOT ul
{
	 OFFSET 0 0 0
	 CHANNELS 3 XPosition YPosition Z Position
	 EndSite
	 {
	 OFFSET 0 -1 0
	 }
}
ROOT ll
{
	 OFFSET 0 0 0
	 CHANNELS 3 XPosition YPosition Z Position
	 EndSite
	 {
	 OFFSET 0 -1 0
	 }
}
ROOT tt
{
	 OFFSET 0 0 0
	 CHANNELS 3 XPosition YPosition Z Position
	 EndSite
	 {
	 OFFSET 0 -1 0
	 }
}
ROOT tb
{
	 OFFSET 0 0 0
	 CHANNELS 3 XPosition YPosition Z Position
	 EndSite
	 {
	 OFFSET 0 -1 0
	 }
}
ROOT td
{
	 OFFSET 0 0 0
	 CHANNELS 3 XPosition YPosition Z Position
	 EndSite
	 {
	 OFFSET 0 -1 0
	 }
}
ROOT v
{
	 OFFSET 0 0 0
	 CHANNELS 3 XPosition YPosition Z Position
	 EndSite
	 {
	 OFFSET 0 -1 0
	 }
}
ROOT bn
{
	 OFFSET 0 0 0
	 CHANNELS 3 XPosition YPosition Z Position
	 EndSite
	 {
	 OFFSET 0 -1 0
	 }
}
MOTION
Frames: 29
Frame Time: 0.002
0.004436006069183349	0.0012017899751663207	0		0.5221793212890625	-2.404283203125	0		-1.1202774658203125	0.1410185546875	0		-0.7105056762695312	-2.659627197265625	0		1.6074046630859375	-0.8101363525390625	0		3.13144775390625	0.031170598983764647	0		4.59368896484375	0.20246148681640624	0		5.609220703125	0.1390251007080078	0		-0.22240792846679688	5.921111328125	0		
-0.016857227325439452	0.005415060997009277	0		0.4690543518066406	-2.400469970703125	0		-1.1196546630859374	0.1407623291015625	0		-0.6855708618164063	-2.654274169921875	0		1.6019595947265626	-0.8180811157226563	0		3.155040283203125	0.028831256866455077	0		4.59430712890625	0.20263484191894532	0		5.60624169921875	0.15689468383789062	0		-0.22221969604492187	5.92092236328125	0		
0.0026850409507751466	-0.0020761148929595947	0		0.529616943359375	-2.41763818359375	0		-1.1340302734375	0.1387794952392578	0		-0.7237120971679688	-2.654805419921875	0		1.5968128662109375	-0.8110146484375	0		3.147741943359375	0.031051891326904297	0		4.601853515625	0.19670480346679686	0		5.61730078125	0.13959718322753906	0		-0.35535000610351564	5.90206982421875	0		
-0.018550952911376952	0.002160888910293579	0		0.4546759033203125	-2.406424072265625	0		-1.1183172607421874	0.14028807067871094	0		-0.7207859497070312	-2.653039794921875	0		1.6133890380859375	-0.8213152465820313	0		3.11843505859375	0.03166620635986328	0		4.58565380859375	0.20420211791992188	0		5.61067236328125	0.1403707733154297	0		-0.3541399841308594	5.89988134765625	0		
0.010201676368713379	0.004546201229095459	0		0.5115328674316406	-2.408487548828125	0		-1.113553955078125	0.1440072784423828	0		-0.7378824462890625	-2.65291015625	0		1.4992237548828125	-0.816335693359375	0		3.161183349609375	0.034040782928466795	0		4.5963251953125	0.2032391357421875	0		5.6141240234375	0.15284207153320312	0		-0.20437353515625	5.92714453125	0		
-0.011032479286193848	0.007814442157745361	0		0.48647216796875	-2.405114501953125	0		-1.1169212646484374	0.13988595581054689	0		-0.6809722290039063	-2.653038818359375	0		1.6111148681640626	-0.8102528076171875	0		3.123932373046875	0.03681055450439453	0		4.60114208984375	0.21038740539550782	0		5.61048486328125	0.1708114471435547	0		-0.22022238159179688	5.91929541015625	0		
0.011622394561767578	0.004343048095703125	0		0.5263262939453125	-2.40684326171875	0		-1.116220947265625	0.13971485900878905	0		-0.72895068359375	-2.645340087890625	0		1.60881298828125	-0.8141825561523437	0		3.155429443359375	0.024403606414794922	0		4.60461376953125	0.1975635528564453	0		5.60877490234375	0.15929348754882813	0		-0.22090570068359375	5.92020361328125	0		
-0.019790786743164063	-0.0021856110095977784	0		0.48209347534179686	-2.412115478515625	0		-1.1205787353515626	0.13664866638183593	0		-0.695161865234375	-2.651029541015625	0		1.6103302001953126	-0.8281672973632812	0		3.12613427734375	0.025050146102905273	0		4.59840625	0.20391310119628905	0		5.6127275390625	0.14235357666015624	0		-0.23476870727539062	5.91035205078125	0		
0.016721338272094727	-0.012861486434936523	0		0.508880859375	-2.41558984375	0		-1.114849609375	0.13942813110351562	0		-0.7404508666992188	-2.6593525390625	0		1.6171890869140626	-0.821230224609375	0		3.156815673828125	0.024676811218261718	0		4.59908056640625	0.20414503479003906	0		5.6132265625	0.14285784912109376	0		-0.33747955322265627	5.9100283203125	0		
-0.011318510055541992	0.00457898998260498	0		0.48986810302734374	-2.40527099609375	0		-1.11419140625	0.13930972290039062	0		-0.7026434936523438	-2.66107568359375	0		1.62685400390625	-0.8243335571289062	0		3.12668896484375	0.03734425735473633	0		4.60385302734375	0.21130772399902345	0		5.6166474609375	0.15534768676757812	0		-0.20482048034667968	5.92971484375	0		
0.014317567825317384	0.004118059158325195	0		0.5145606689453125	-2.41068505859375	0		-1.1135596923828126	0.13920700073242187	0		-0.7106607666015625	-2.650003662109375	0		1.620661376953125	-0.81715869140625	0		3.158119384765625	0.024967073440551758	0		4.60036279296875	0.20460795593261719	0		5.61711181640625	0.15584228515625	0		-0.2187112579345703	5.9189033203125	0		
-0.013122673988342284	0.0015657860040664672	0		0.5392142333984375	-2.41608544921875	0		-1.1129608154296875	0.13911944580078126	0		-0.6681817016601562	-2.666774169921875	0		1.6161795654296875	-0.825008056640625	0		3.16589208984375	0.03499877548217773	0		4.6009580078125	0.20483961486816407	0		5.60701025390625	0.17925730895996095	0		-0.21941835021972655	5.9198828125	0		
0.009373433113098144	-0.0028178489208221438	0		0.5030657653808593	-2.4064501953125	0		-1.1124017333984375	0.1390462646484375	0		-0.7241292724609375	-2.645869140625	0		1.613739990234375	-0.8278851928710937	0		3.154407958984375	0.0323553581237793	0		4.601513671875	0.20507057189941405	0		5.61502587890625	0.14482659912109375	0		-0.21916696166992186	5.91985693359375	0		
-0.016102914810180665	-0.002385540008544922	0		0.5146045532226563	-2.412612060546875	0		-1.111888916015625	0.13898672485351563	0		-0.70176416015625	-2.663275146484375	0		1.620183349609375	-0.8349071655273438	0		3.124930419921875	0.03301278686523437	0		4.60202294921875	0.20529832458496095	0		5.61540380859375	0.14530136108398437	0		-0.216978515625	5.91780908203125	0		
0.006244534015655517	-0.009746728897094726	0		0.4933045959472656	-2.405215576171875	0		-1.10736181640625	0.14287342834472655	0		-0.73001806640625	-2.65381884765625	0		1.6298721923828126	-0.823977294921875	0		3.1674404296875	0.03546293640136719	0		4.60046435546875	0.20455290222167968	0		5.6216142578125	0.1697442932128906	0		-0.20163949584960938	5.92655322265625	0		
-0.005060509204864502	0.00746692419052124	0		0.545725341796875	-2.41104443359375	0		-1.1069581298828124	0.14284251403808593	0		-0.7074327392578125	-2.650200927734375	0		1.6272503662109374	-0.8278421020507812	0		3.15888330078125	0.03776217269897461	0		4.61288037109375	0.2055629425048828	0		5.623171875	0.14590203857421874	0		-0.2176111145019531	5.918828125	0		
-0.010811999320983886	0.0015937609672546386	0		0.49016851806640627	-2.410067138671875	0		-1.110681640625	0.13889572143554688	0		-0.7110545654296875	-2.654133056640625	0		1.6156298828125	-0.8275569458007812	0		3.126151123046875	0.03345285415649414	0		4.60322216796875	0.20592353820800782	0		5.61284619140625	0.1640257568359375	0		-0.21747886657714843	5.9188466796875	0		
-0.010529497146606445	0.001631142020225525	0		0.5403978881835938	-2.417843994140625	0		-1.110403076171875	0.13890121459960938	0		-0.7127279663085937	-2.65608251953125	0		1.6159364013671875	-0.827472412109375	0		3.1613115234375	0.026001338958740235	0		4.61039794921875	0.1999793243408203	0		5.61305126953125	0.16436810302734375	0		-0.3658619079589844	5.89033837890625	0		
-0.01437890338897705	-0.002253201961517334	0		0.49078582763671874	-2.409956298828125	0		-1.1101895751953126	0.13892787170410156	0		-0.699575927734375	-2.663262451171875	0		1.6220526123046874	-0.8344893188476562	0		3.141646240234375	0.03344453811645508	0		4.6037109375	0.20623638916015624	0		5.6195908203125	0.15919813537597657	0		-0.3506170654296875	5.8991298828125	0		
-0.00711198091506958	0.004689886093139649	0		0.5449059448242187	-2.41378515625	0		-1.1100390625	0.1389763641357422	0		-0.6973632202148438	-2.661242919921875	0		1.628328369140625	-0.8275125122070313	0		3.156795654296875	0.0332891960144043	0		4.613859375	0.20617919921875	0		5.61970068359375	0.15940269470214843	0		-0.21718089294433593	5.91898046875	0		
0.0028293490409851073	-0.0044035987854003904	0		0.49513864135742186	-2.40488671875	0		-1.1099473876953125	0.1390465545654297	0		-0.6623241577148438	-2.664751953125	0		1.6223055419921875	-0.8343401489257812	0		3.150855224609375	0.03146184730529785	0		4.6039521484375	0.20641879272460936	0		5.61560546875	0.17700125122070312	0		-0.2180763397216797	5.92006787109375	0		
-0.006982582092285156	0.004842065811157227	0		0.5341323852539063	-2.406456298828125	0		-1.1099085693359374	0.1391378936767578	0		-0.708105712890625	-2.651904052734375	0		1.6223355712890626	-0.8342737426757812	0		3.168973388671875	0.03621531677246094	0		4.613990234375	0.20629225158691405	0		5.62398779296875	0.1473043975830078	0		-0.36451153564453126	5.8895751953125	0		
-0.014107210159301758	-0.001949789047241211	0		0.5169805297851563	-2.412092529296875	0		-1.10991552734375	0.13924958801269532	0		-0.6772853393554688	-2.65931298828125	0		1.619244384765625	-0.8381629028320312	0		3.126920654296875	0.0339441032409668	0		4.60398583984375	0.20646267700195312	0		5.61684716796875	0.1475691375732422	0		-0.21788339233398438	5.92024609375	0		
0.021673065185546875	-0.012446168899536134	0		0.5168650512695312	-2.4120068359375	0		-1.1099600830078125	0.1393805236816406	0		-0.7344164428710938	-2.659246826171875	0		1.6222386474609376	-0.834158203125	0		3.156868896484375	0.03345881271362305	0		4.603943359375	0.20643490600585937	0		5.61336181640625	0.16491783142089844	0		-0.3491482238769531	5.89853271484375	0		
-0.004069582939147949	0.008092655181884765	0		0.49481930541992186	-2.404550537109375	0		-1.1059678955078125	0.14346250915527345	0		-0.69354638671875	-2.65679443359375	0		1.63106201171875	-0.8382562866210937	0		3.172922119140625	0.041187427520751954	0		4.615953125	0.21117866516113282	0		5.61968359375	0.15931561279296874	0		-0.2005198974609375	5.92718505859375	0		
0.0177758731842041	0.0048452639579772945	0		0.546524169921875	-2.41031982421875	0		-1.1101297607421876	0.1396964111328125	0		-0.6937615356445312	-2.6566455078125	0		1.6219925537109374	-0.834056884765625	0		3.15977392578125	0.03838881301879883	0		4.617876953125	0.2120674591064453	0		5.61960546875	0.15911325073242188	0		-0.21551679992675782	5.91856494140625	0		
-0.007339183807373047	0.005392727851867676	0		0.5162597045898437	-2.4117138671875	0		-1.1102418212890626	0.13987973022460937	0		-0.6760111694335937	-2.65678369140625	0		1.6187669677734375	-0.8379547119140625	0		3.126577880859375	0.03391918563842773	0		4.61366845703125	0.20604193115234376	0		5.6131328125	0.16432499694824218	0		-0.21633285522460938	5.9197216796875	0		
0.011409274101257324	-0.0017857149839401246	0		0.5160006103515625	-2.411601806640625	0		-1.110365966796875	0.1400777587890625	0		-0.7112278442382812	-2.65302099609375	0		1.618591064453125	-0.8379009399414062	0		3.16132568359375	0.026306283950805663	0		4.6135478515625	0.20593734741210937	0		5.6164775390625	0.14661763000488282	0		-0.3485191650390625	5.8990927734375	0		
-8.313329815864563E-4	-0.007435680866241455	0		0.48976104736328124	-2.40904541015625	0		-1.1104991455078126	0.1402879180908203	0		-0.7006716918945313	-2.662017578125	0		1.6184027099609375	-0.8378446044921875	0		3.146188232421875	0.02652851676940918	0		4.60830126953125	0.1989102020263672	0		5.61636962890625	0.14633358764648438	0		-0.2149759063720703	5.91901513671875	0		
